<svg xmlns="http://www.w3.org/2000/svg" viewBox="0 0 800 400" fill="none">
  <rect width="800" height="400" fill="url(#bg4)"/>
  <defs>
    <linearGradient id="bg4" x1="0" y1="0" x2="800" y2="400" gradientUnits="userSpaceOnUse">
      <stop offset="0%" stop-color="#080c14"/>
      <stop offset="100%" stop-color="#0e1525"/>
    </linearGradient>
    <filter id="glow4"><feGaussianBlur stdDeviation="4"/></filter>
    <marker id="a4" markerWidth="7" markerHeight="7" refX="5" refY="3" orient="auto">
      <path d="M0,0 L0,6 L7,3 z" fill="#6366f1"/>
    </marker>
  </defs>

  <!-- Mac Studio -->
  <rect x="30" y="80" width="185" height="240" rx="14" fill="#1e1b4b" stroke="#6366f1" stroke-width="1.5"/>
  <circle cx="30" cy="80" r="0" fill="none"/>
  <text x="122" y="108" text-anchor="middle" font-family="monospace" font-size="10" fill="#818cf8" font-weight="bold">Mac Studio</text>
  <text x="122" y="123" text-anchor="middle" font-family="monospace" font-size="9" fill="#6366f1">192.168.68.120</text>
  <rect x="48" y="134" width="150" height="60" rx="8" fill="#312e81"/>
  <text x="123" y="156" text-anchor="middle" font-family="monospace" font-size="9" fill="#a5b4fc" font-weight="bold">Claude Code</text>
  <text x="123" y="170" text-anchor="middle" font-family="monospace" font-size="8" fill="#818cf8">AIオーケストレーター</text>
  <text x="123" y="183" text-anchor="middle" font-family="monospace" font-size="8" fill="#6366f1">SSH → VM操作</text>
  <rect x="48" y="204" width="150" height="50" rx="8" fill="#1a1730"/>
  <text x="123" y="224" text-anchor="middle" font-family="monospace" font-size="9" fill="#a5b4fc">Dropbox Sync</text>
  <text x="123" y="239" text-anchor="middle" font-family="monospace" font-size="8" fill="#6366f1">~/CloudDrive/</text>
  <rect x="48" y="262" width="150" height="40" rx="8" fill="#1a1730"/>
  <text x="123" y="278" text-anchor="middle" font-family="monospace" font-size="9" fill="#a5b4fc">GitHub CLI</text>
  <text x="123" y="292" text-anchor="middle" font-family="monospace" font-size="8" fill="#6366f1">gh issue / pr</text>

  <!-- STG VM (Windows + VirtualBox) -->
  <rect x="290" y="60" width="220" height="280" rx="14" fill="#0c1a2e" stroke="#22d3ee" stroke-width="1.5"/>
  <text x="400" y="88" text-anchor="middle" font-family="monospace" font-size="10" fill="#67e8f9" font-weight="bold">STG: TeamAgent-KIKI</text>
  <text x="400" y="103" text-anchor="middle" font-family="monospace" font-size="9" fill="#06b6d4">Ubuntu 24.04 · 192.168.68.72</text>
  <!-- Agent grid -->
  <g font-family="monospace" font-size="8">
    <rect x="308" y="115" width="90" height="26" rx="6" fill="#0f2035" stroke="#1d4ed8" stroke-width="1"/>
    <text x="353" y="128" text-anchor="middle" fill="#93c5fd">Aira :9101</text>
    <text x="353" y="138" text-anchor="middle" fill="#60a5fa">orch</text>

    <rect x="408" y="115" width="90" height="26" rx="6" fill="#0f2035" stroke="#1d4ed8" stroke-width="1"/>
    <text x="453" y="128" text-anchor="middle" fill="#93c5fd">KIKI :9102</text>
    <text x="453" y="138" text-anchor="middle" fill="#60a5fa">monitor</text>

    <rect x="308" y="149" width="90" height="26" rx="6" fill="#0f2035" stroke="#1d4ed8" stroke-width="1"/>
    <text x="353" y="162" text-anchor="middle" fill="#93c5fd">Riku :9103</text>
    <text x="353" y="172" text-anchor="middle" fill="#60a5fa">ingest</text>

    <rect x="408" y="149" width="90" height="26" rx="6" fill="#0f2035" stroke="#1d4ed8" stroke-width="1"/>
    <text x="453" y="162" text-anchor="middle" fill="#93c5fd">Sen :9104</text>
    <text x="453" y="172" text-anchor="middle" fill="#60a5fa">router</text>

    <rect x="308" y="183" width="90" height="26" rx="6" fill="#0f2035" stroke="#1d4ed8" stroke-width="1"/>
    <text x="353" y="196" text-anchor="middle" fill="#93c5fd">Sora :9105</text>
    <text x="353" y="206" text-anchor="middle" fill="#60a5fa">retrieval</text>

    <rect x="408" y="183" width="90" height="26" rx="6" fill="#0f2035" stroke="#1d4ed8" stroke-width="1"/>
    <text x="453" y="196" text-anchor="middle" fill="#93c5fd">Haru :9106</text>
    <text x="453" y="206" text-anchor="middle" fill="#60a5fa">rerank</text>

    <rect x="308" y="217" width="90" height="26" rx="6" fill="#0f2035" stroke="#1d4ed8" stroke-width="1"/>
    <text x="353" y="230" text-anchor="middle" fill="#93c5fd">Tomo :9107</text>
    <text x="353" y="240" text-anchor="middle" fill="#60a5fa">validate</text>

    <rect x="408" y="217" width="90" height="26" rx="6" fill="#0f2035" stroke="#1d4ed8" stroke-width="1"/>
    <text x="453" y="230" text-anchor="middle" fill="#93c5fd">Niko :9108</text>
    <text x="453" y="240" text-anchor="middle" fill="#60a5fa">generate</text>

    <rect x="356" y="251" width="90" height="26" rx="6" fill="#0f2035" stroke="#1d4ed8" stroke-width="1"/>
    <text x="401" y="264" text-anchor="middle" fill="#93c5fd">Luna :9109</text>
    <text x="401" y="274" text-anchor="middle" fill="#60a5fa">graph RAG</text>
  </g>
  <!-- Services -->
  <rect x="308" y="285" width="90" height="36" rx="6" fill="#132137" stroke="#22d3ee" stroke-width="1"/>
  <text x="353" y="301" text-anchor="middle" font-family="monospace" font-size="9" fill="#67e8f9">Dashboard</text>
  <text x="353" y="313" text-anchor="middle" font-family="monospace" font-size="8" fill="#22d3ee">:8080</text>
  <rect x="408" y="285" width="90" height="36" rx="6" fill="#132137" stroke="#22d3ee" stroke-width="1"/>
  <text x="453" y="301" text-anchor="middle" font-family="monospace" font-size="9" fill="#67e8f9">Chat Server</text>
  <text x="453" y="313" text-anchor="middle" font-family="monospace" font-size="8" fill="#22d3ee">:8081</text>

  <!-- DEV VM -->
  <rect x="585" y="80" width="185" height="170" rx="14" fill="#0e1a0e" stroke="#4ade80" stroke-width="1.5"/>
  <text x="677" y="108" text-anchor="middle" font-family="monospace" font-size="10" fill="#86efac" font-weight="bold">DEV VM</text>
  <text x="677" y="123" text-anchor="middle" font-family="monospace" font-size="9" fill="#4ade80">192.168.68.210</text>
  <rect x="603" y="134" width="150" height="40" rx="8" fill="#0a2d0a"/>
  <text x="678" y="152" text-anchor="middle" font-family="monospace" font-size="9" fill="#86efac">Strapi v5</text>
  <text x="678" y="165" text-anchor="middle" font-family="monospace" font-size="8" fill="#4ade80">CMS API :1337</text>
  <rect x="603" y="182" width="150" height="40" rx="8" fill="#0a2d0a"/>
  <text x="678" y="200" text-anchor="middle" font-family="monospace" font-size="9" fill="#86efac">Docker</text>
  <text x="678" y="213" text-anchor="middle" font-family="monospace" font-size="8" fill="#4ade80">PostgreSQL</text>
  <rect x="603" y="228" width="150" height="14" rx="4" fill="#0a2d0a"/>
  <text x="678" y="239" text-anchor="middle" font-family="monospace" font-size="8" fill="#4ade80" opacity="0.6">⏳ セットアップ準備中</text>

  <!-- LAN label -->
  <rect x="580" y="270" width="185" height="50" rx="14" fill="#111" stroke="#374151" stroke-width="1"/>
  <text x="677" y="292" text-anchor="middle" font-family="monospace" font-size="9" fill="#6b7280">Vercel (Frontend)</text>
  <text x="677" y="308" text-anchor="middle" font-family="monospace" font-size="9" fill="#4b5563">agenticworkerz.com</text>

  <!-- Connections -->
  <path d="M215,200 L290,200" stroke="#6366f1" stroke-width="1.5" stroke-dasharray="4 3" marker-end="url(#a4)"/>
  <text x="252" y="192" text-anchor="middle" font-family="monospace" font-size="8" fill="#6366f1">SSH</text>

  <path d="M510,155 L585,155" stroke="#4ade80" stroke-width="1.5" stroke-dasharray="4 3" marker-end="url(#a4)"/>
  <text x="547" y="147" text-anchor="middle" font-family="monospace" font-size="8" fill="#4ade80">API</text>

  <!-- Bottom label -->
  <text x="400" y="388" text-anchor="middle" font-family="monospace" font-size="9" fill="#6366f1" opacity="0.4">3-Machine Architecture · LAN 192.168.68.0/22 · AgenticWorkerz</text>
</svg>
